<?xml version="1.0" encoding="utf-8"?>
<!-- Generator: Adobe Illustrator 21.1.0, SVG Export Plug-In . SVG Version: 6.00 Build 0)  -->
<svg version="1.1" xmlns="http://www.w3.org/2000/svg" xmlns:xlink="http://www.w3.org/1999/xlink" x="0px" y="0px"
	 viewBox="0 0 3183.3 2152.1" style="enable-background:new 0 0 3183.3 2152.1;" xml:space="preserve">
<style type="text/css">
	.st0{fill:#FFEAE0;}
	.st1{fill:#3692F2;}
	.st2{fill:#2B244A;}
	.st3{fill:#FEA689;}
	.st4{fill:#252730;}
	.st5{fill:#F2835E;}
	.st6{fill:#201B38;}
	.st7{fill:#2471C4;}
	.st8{opacity:0.3;}
	.st9{fill:#5EA8F5;stroke:#5EA8F5;stroke-width:5;stroke-miterlimit:10;}
	.st10{fill:#05CED3;}
	.st11{fill:#69E2E5;}
	.st12{fill:#232C44;}
	.st13{fill:#485A7E;}
	.st14{fill:#FBB040;}
	.st15{fill:#FFFFFF;}
	.st16{fill:#5EA8F5;}
</style>
<g id="Layer_2_1_">
	<g id="Layer_2">
	</g>
</g>
<g id="Layer_1">
	<path class="st0" d="M1106.3,1667.5c-3.2,71.9,23.6,81,9.3,142.9c-5.6,24.3-8.5,107.9-10.3,200.5h363.1
		c-19.2-117.5-38.8-231.1-46.5-253.9c-17.1-50.3-8.5-138.3-15.7-182.8c-17.8-111-65.5-238.8-65.5-238.8s8,2.8,19.6,6.9
		c-1.9-0.8-3.9-1.5-5.8-2.2c-47-17.5-101.2-21.1-151.3-18.6c-0.5-0.9-1.3-1.5-2.6-1.5c-35.1,0.1-70.1,3.6-104.4,11.1
		c-4.9,1.1-10.3,2.3-16,3.8c29.2-6.7,51.8-10.1,51.8-10.1S1109.5,1595.5,1106.3,1667.5z"/>
	<path class="st1" d="M963.8,1534.7c0.4,38.8-5.6,76.9,0.5,115.5c5.7,36,10.3,69,6.9,105.5c-3.2,35-7.3,69.2-0.2,104
		c3.7,18,9.1,35.8,10.6,54.3c1.6,20.3-3.9,39-8.4,58.5c-3,12.8-4.8,25.4-3.7,38.4h134.7c1.8-92.6,4.7-176.2,10.3-200.5
		c14.3-61.9-12.4-71-9.3-142.9c3.2-71.9,25.5-342.8,25.5-342.8s-22.6,3.4-51.8,10.1c-29.7,7.5-67.4,19.7-89.3,35.2
		C934.9,1408.6,963.4,1495.5,963.8,1534.7z"/>
	<path class="st1" d="M1440.7,1430.1c5.7,52.2,6.3,105.5,7.7,158c1.4,53.5,8.2,106.8,8.7,160.3c0.4,53.7,0.8,107.4,4.5,161
		c2.4,34.1,4.1,67.9,7.1,101.6h40.3c-8.9-49.8-15.6-92.2-15.3-111c1-59.6-31.6-483.1-57.1-521.5c-4.2-6.3-56.2-25.6-85.4-36.1
		C1391.5,1358.5,1436.3,1389.3,1440.7,1430.1z"/>
	<path class="st1" d="M1405.1,1574.2c7.1,44.5-1.4,132.6,15.7,182.8c7.8,22.8,27.4,136.4,46.5,253.9h9.4c-3-33.8-4.7-67.6-7.1-101.6
		c-3.7-53.6-4.1-107.3-4.5-161c-0.4-53.5-7.2-106.8-8.7-160.3c-1.4-52.5-2-105.7-7.7-158c-4.4-40.7-49.2-71.6-89.5-87.8
		c-11.6-4.2-19.6-6.9-19.6-6.9S1387.3,1463.2,1405.1,1574.2z"/>
	<g>
		<path class="st2" d="M1469.9,1070.6c-3.1-8.4-10.4-15.2-13.4-23.2c-6.4-17.4,3.2-35.1-9.2-51.2c-9.4-12.2-25.4-18.9-39.3-24.3
			c-10.7-4.1-18.8-7.3-26.7-15.7c-4.1-4.4-8-7.6-13.7-9.9c-8.4-3.5-17.4-5.2-26.4-5.7c-11.6-0.7-22.2-1.4-33.7-3.8
			c-21.2-4.5-42.1-5.3-63.7-4.9c-31.4,0.7-52.3,13.4-75,34.1c-0.5,0.5-0.7,1-0.8,1.5c-2.3,1.4-4.7,2.9-7,4.7
			c-9.7,7.8-17.1,18.2-21.1,30c-3,8.6-3.7,18.6-8.3,26.6c-4.5,7.8-11.9,10-17.3,16.2c-13.5,15.6-3.5,36.3,11.6,46.2
			c0.4,0.3,0.7,4.9,0.9,5.7c0.6,2.1,1.4,4.2,2.5,6.1c2.1,3.9,5,7.8,8.7,10.1c2.1,1.4,2.8,4.9,4.4,6.9c5.3,6.7,13.1,7,20.5,8.7
			c6.4,34.3,13.3,68.5,21.1,102.6c0.9,3.9,6.9,2.1,6-1.8c-1.3-5.8-2.5-11.7-3.8-17.5c21.4-4.2,29.5-17,44-31.8
			c10.2-10.4,21.7-9.4,34.6-12.3c12.3-2.8,22.9-8.2,35.8-7.7c27.7,1.1,56.7,10,83.9,15c15.4,2.8,35,6.6,46.8-6.8
			c5.2-5.9,4.3-10.7,5.8-17.9c1.5-7.5,6.2-13.3,10.1-19.4c16.6-2.6,28.6-15.3,27.6-36.9C1474.3,1086.2,1472.7,1078.2,1469.9,1070.6z
			"/>
		<path class="st3" d="M1415,1119.4c-0.1,2.7-0.3,5.4-0.4,8c-0.1,2.6-0.3,5.3-0.5,7.8c-0.2,2.6-0.4,5.1-0.6,7.6
			c-2.3,27.2-6.9,54.1-13.3,80.8c-8,33.4-18.7,73.4-49.9,92.7c-14.9,9.3-32.7,11.8-50,10.6c-91.8-6.2-94.6-42.2-117.4-130.7
			c-22.9-88.6,38.9-184.4,38.9-184.4s96.2-31.3,125.2-5.5c16.9,14.9,63.9,27.3,65.9,47.9C1415.1,1076.1,1415.7,1097.7,1415,1119.4z"
			/>
		<path class="st3" d="M1186.2,1192.6l-31.1,145.8c0,0,27.4,48.2,72.9,54.9c44.4,6.6,69.2-26.1,69.2-26.1l24.2-115.9L1186.2,1192.6z
			"/>
		<path class="st4" d="M1393.9,1157.1c-0.7-0.2-1.4-0.3-2.2-0.2c-7.1,0.1-8.8,12.7-9.4,18c-0.6,6.4,4.1,11.5,10.1,6.8
			C1397.4,1177.7,1402.7,1159.5,1393.9,1157.1z"/>
		<path class="st4" d="M1299,1148.3c-0.7-0.2-1.5-0.3-2.3-0.3c-7.5,0.1-9.3,13.3-9.8,18.9c-0.7,6.7,4.3,12.1,10.6,7.1
			C1302.7,1169.9,1308.2,1150.8,1299,1148.3z"/>
		<g>
			<path class="st5" d="M1346.7,1242.1c-5.6,0-10.5-1.3-10.9-1.4c-1.4-0.4-2.3-1.9-1.9-3.3c0.4-1.4,1.9-2.3,3.3-1.9
				c0.2,0,19,5.1,22.3-5.7c1.9-6.2,1.5-35.3,1.1-46c0-1.5,1.1-2.7,2.6-2.8c1.4-0.1,2.7,1.1,2.8,2.6c0.1,4,1.2,39.6-1.4,47.8
				C1362,1240.1,1353.7,1242.1,1346.7,1242.1z"/>
		</g>
		<g>
			<path class="st5" d="M1295.4,1328.3c-0.3,0-0.7-0.1-1-0.2c-0.8-0.4-21-8.8-37.8-22.7c-16.8-13.9-26.1-27.4-26.5-27.9
				c-0.8-1.2-0.5-2.9,0.7-3.7c1.2-0.8,2.9-0.5,3.7,0.7c0.1,0.1,9.3,13.5,25.5,26.8c16.2,13.4,36.2,21.8,36.4,21.8
				c1.4,0.6,2,2.1,1.5,3.5C1297.5,1327.7,1296.5,1328.3,1295.4,1328.3z"/>
		</g>
		<path class="st5" d="M1295.1,1245c0,0,13,8,30.4,13.2c16.6,4.9,29.8,3.8,29.8,3.8s-8.9,10.4-21.6,10.6
			c-10.2,0.2-23.8-3.7-31.5-10.8C1294.4,1254.7,1295.1,1245,1295.1,1245z"/>
		<path class="st2" d="M1317.1,1115.2c-8.4-1.5-17-1.7-25.5-0.5c-6.9,1-14.8,2.4-19.9,7.7c-1.4,1.5,0.1,4.1,2,4.5
			c6.3,1.5,12.3,1.3,18.7,1.6c9.3,0.4,18.3,2.7,27.4,4.3c5.1,0.9,17.5,3.4,16.4-6.3c-1-8.2-12.3-10.1-18.7-11.3
			C1317.3,1115.2,1317.2,1115.2,1317.1,1115.2z"/>
		<path class="st2" d="M1414.6,1127.4c-0.1,2.6-0.3,5.3-0.5,7.8c-0.2,2.6-0.4,5.1-0.6,7.6c-6.4-0.6-12.9-0.5-19.4-0.8
			c-5.2-0.2-17.9-0.6-14.6-9.7c2.8-7.8,14.2-7.2,20.8-6.9c0.1,0,0.2,0,0.3,0.1C1405.2,1125.7,1409.9,1126.3,1414.6,1127.4z"/>
		<path class="st2" d="M1193.5,1126.4c0,0-15.8,9.9-15.8,28.6c-0.1,18.7,11.7,34.4,11.7,34.4l-8.6,28.4l-3.7-33.6l-8.8-60.7
			L1193.5,1126.4z"/>
		<path class="st3" d="M1155.1,1338.4c0,0,32.1,53.4,52.3,74.3c20.2,21,48.6,44,57,35.9c8.4-8,32.8-81.5,32.8-81.5s-87-23.8-91-25.1
			C1202.1,1340.7,1155.1,1338.4,1155.1,1338.4z"/>
		<path class="st2" d="M1418.3,1046.4c-5.2-13.8-17.2-23.9-28.2-33.1c-30-25.1-65.4-28.9-103.5-29.1c-30.7-0.2-67.1,15.9-86.4,40.3
			c-21.2,27-33,64-32.3,98.1c-0.7,0.1-1.3,0.1-2.1,0.2c-4,0.6-2.1,6.6,1.8,6c3.8-0.6,9.4,1.7,12.6,3.7c3.6,2.2,5.9,7,9.6,8.5
			c1.2,0.5,2.5,0.6,3.8,0.7c8.3,0.6,16.6-1,24.8,0.1c4.4,0.6,7.6,2,12.2,1.4c7.4-0.9,14.4-4.9,19.3-10.5c6-6.8,6.2-13.4,7.4-21.9
			c2-13.5,6.3-19.4,18.5-25.1c8.6-4,18.6-4.4,26.1-10.7c1.7-1.5,3.4-3.2,4.9-5c19.2-2.5,38-7.7,51.3-21.5c2.8,5.4,6.8,6.8,11.4,10.4
			c4.8,3.8,7.4,9.5,12.9,12.7c4.7,2.7,10.1,4,14.8,6.8c5.6,3.3,7.6,9.3,11.5,14.2c5.3,6.6,9.7,19.6,9,28c-0.4,4,2.8-4.2,3.1-8.2
			c0.2-2.2,0.3-4.3,0.3-6.4c0.8-0.5,1.4-1.3,1.3-2.5C1422.1,1085.2,1424.9,1063.8,1418.3,1046.4z"/>
		<g>
			<path class="st6" d="M1360.4,1043.8c-0.2,0-0.5,0-0.7-0.1c-1.4-0.4-2.3-1.9-1.9-3.3c0.1-0.3,8-30.1-3-43.5
				c-5.2-6.4-10.7-8.4-16.5-10.6c-6.8-2.6-13.9-5.2-19.7-14.8c-16.5-27.2-30-27.7-30.1-27.7c-1.5,0-2.7-1.2-2.7-2.7
				c0-1.5,1.1-2.7,2.6-2.7c0.6,0,16.3,0,34.7,30.3c4.8,8,10.5,10.1,17,12.6c5.9,2.2,12.7,4.8,18.8,12.2c12.8,15.6,4.4,47,4,48.3
				C1362.6,1043,1361.6,1043.8,1360.4,1043.8z"/>
		</g>
		<g>
			<path class="st6" d="M1438.2,1128.8c-0.4,0-0.9-0.1-1.3-0.3c-0.3-0.2-7.7-4.4-10.9-14.6c-0.8-2.7-1.3-5.4-1.8-8.2
				c-1.3-7.4-2.7-15.7-11.5-27.8c-11.9-16.5-36.3-26.3-36.5-26.4c-1.4-0.5-2.1-2.1-1.5-3.5c0.6-1.4,2.1-2,3.5-1.5
				c1.1,0.4,26.1,10.5,38.9,28.2c9.5,13.1,11.1,22.5,12.4,30c0.5,2.7,0.9,5.2,1.6,7.5c2.5,8.1,8.2,11.4,8.4,11.5
				c1.3,0.7,1.7,2.4,1,3.7C1440,1128.3,1439.1,1128.8,1438.2,1128.8z"/>
		</g>
		<g>
			<path class="st6" d="M1433.4,1071.1c-1,0-1.9-0.5-2.4-1.5c-0.1-0.1-6.4-12.6-19.6-20.7c-13.5-8.4-32.9-14.2-33-14.2
				c-1.4-0.4-2.2-1.9-1.8-3.3c0.4-1.4,1.9-2.2,3.3-1.8c0.8,0.2,20.2,6,34.3,14.8c14.5,9,21.3,22.4,21.5,22.9
				c0.7,1.3,0.1,2.9-1.2,3.6C1434.2,1071,1433.8,1071.1,1433.4,1071.1z"/>
		</g>
		<g>
			<path class="st6" d="M1237.2,1121c-0.2,0-0.4,0-0.6-0.1c-1.5-0.3-2.4-1.7-2.1-3.2c0.2-1,5.3-24,18.9-40.2
				c9.1-10.8,19.3-17.1,30.4-18.7c1.5-0.2,2.9,0.8,3.2,2.3c0.2,1.5-0.7,2.8-2.1,3c0,0-0.2,0-0.3,0c-9.7,1.4-18.8,7.1-27,16.8
				c-12.8,15.2-17.7,37.7-17.7,37.9C1239.6,1120.1,1238.5,1121,1237.2,1121z"/>
		</g>
		<g>
			<path class="st6" d="M1277.1,1050.2c-1.4,0-2.5-1-2.7-2.4c-0.1-1.5,0.9-2.8,2.4-2.9c0.1,0,15-1.6,39-10.8
				c23.8-9.2,32-18.6,32.1-18.7c1-1.1,2.7-1.3,3.8-0.3c1.1,1,1.3,2.7,0.3,3.8c-0.4,0.4-9.2,10.6-34.3,20.2
				c-24.7,9.5-39.8,11.1-40.4,11.2C1277.3,1050.2,1277.2,1050.2,1277.1,1050.2z"/>
		</g>
		<g>
			<path class="st6" d="M1184.2,977.2c-0.7,0-1.4-0.3-1.9-0.8c-1-1.1-1-2.8,0.1-3.8c1-1,25-23.8,50.9-27.9
				c25.7-4.1,34.8-0.7,35.2-0.6c1.4,0.5,2.1,2.1,1.5,3.5c-0.5,1.4-2.1,2-3.5,1.5c-0.1,0-8.5-3-32.3,0.9c-24.2,3.9-47.7,26.3-48,26.5
				C1185.5,976.9,1184.9,977.2,1184.2,977.2z"/>
		</g>
		<g>
			<path class="st6" d="M1136.5,1087c-0.3,0-0.6,0-0.9-0.1c-1.4-0.5-2.1-2-1.6-3.4c0.4-1.3,11-31.2,22.7-43.5
				c11.5-11.9,16.5-14.7,17-14.9c1.3-0.7,2.9-0.1,3.6,1.2c0.7,1.3,0.1,2.9-1.2,3.6c0,0-4.8,2.6-15.6,13.9
				c-10.9,11.4-21.4,41.2-21.5,41.5C1138.7,1086.3,1137.6,1087,1136.5,1087z"/>
		</g>
		<path class="st1" d="M970.5,1375.6c0,0-55.6,31.3-66.4,87.9c-9.6,50.6-41.8,91.6-37.5,145.1c4.3,53.5-44.8,145.9-32.5,187.7
			c12.3,41.8,42.9,72.7,70.1,75.3c27.2,2.6,68.6,30.4,84.2,31.4c15.6,1,58.2,11.3,86.1,2.7c27.9-8.6,24.2-5.3,8-86.1
			C1066.2,1738.8,970.5,1375.6,970.5,1375.6z"/>
		<path class="st1" d="M1428.4,1386.9c0,0,67.5,23.2,96.3,88.2c28.8,65,90.7,147.4,99.4,187.8c8.7,40.4,44.2,44.3,68.1,67.8
			c23.9,23.6,82.9,38.2,118.5,62.5c27.8,18.9,27.9,93.1,25,104c-2.9,11-80.1,23-122.5,14.5c-42.4-8.5-117.2-25.2-160.2-45.3
			c-43.9-20.5-67.6-58-67.6-58s-86.5-277.7-70.7-299.9C1430.5,1486.4,1428.4,1386.9,1428.4,1386.9z"/>
		<path class="st3" d="M1885.2,1854.7c0,0-77.5-42.5-91.3-44.7c-13.8-2.2-43.2,10.2-48.9,31.8c-5.8,21.6-1.4,50.6,13.9,59.2
			c15.3,8.7,112,22.7,112,22.7L1885.2,1854.7z"/>
		<g>
			<path class="st3" d="M1270.7,1880.2c-0.2-0.2-0.3-0.5-0.5-0.7c-2.6-3.2-6.1-5.5-9.6-7.6c-9.4-5.9-18.9-11.6-28.2-17.7
				c-7.4-4.9-14.6-12-23.6-13.8c-10.3-2.1-23.2,3.3-32.8,6.1c-13.8,4-27.4,8.8-40.7,14.1c-0.8-0.1-1.7,0.1-2.4,0.8
				c-0.1,0.1-0.1,0.1-0.2,0.2c-0.5,0.2-1,0.4-1.5,0.6c-1.5,0.6-2.1,2-2,3.3c-10.7,14.2-9.5,41.1,0.4,54.5
				c11.9,16.1,60.4,10.4,60.9,10.5c10.3,8.5,19.2,22.2,32.8,19.8c3.7-0.7,5.9-1.1,8.6-3.7c7.3,4.4,17.7,7.6,21.5-0.1
				c0.5-0.9,0.8-1.8,1-2.7c4.2,1.7,8,1.6,10.9-2.1c3.1-4.1,0.3-14.4-0.8-19.6C1269.1,1911.2,1278.7,1891.4,1270.7,1880.2z"/>
			<g>
				<path class="st5" d="M1262.7,1919.8c-1.2,0-2.3-0.8-2.6-2c-0.1-0.3-7.8-31-12.4-38.7c-4.7-7.8-16.7-18.4-16.8-18.5
					c-1.1-1-1.2-2.7-0.2-3.8c1-1.1,2.7-1.2,3.8-0.2c0.5,0.5,12.7,11.3,17.8,19.8c5.1,8.5,12.7,38.9,13,40.2c0.4,1.4-0.5,2.9-2,3.3
					C1263.1,1919.8,1262.9,1919.8,1262.7,1919.8z"/>
			</g>
			<g>
				<path class="st5" d="M1252.6,1941c-1.1,0-2.1-0.7-2.5-1.8c-0.1-0.3-9.8-27-17.2-38.4c-7.4-11.5-17.3-23-17.4-23.1
					c-1-1.1-0.8-2.8,0.3-3.8c1.1-1,2.8-0.8,3.8,0.3c0.4,0.5,10.2,12,17.8,23.7c7.7,11.9,17.3,38.3,17.8,39.4
					c0.5,1.4-0.2,2.9-1.6,3.4C1253.2,1940.9,1252.9,1941,1252.6,1941z"/>
			</g>
			<g>
				<path class="st5" d="M1230.7,1943.6c-1.1,0-2.1-0.7-2.5-1.8c0-0.1-4.7-12.8-12.9-24c-7.7-10.6-10.7-12.5-10.9-12.6
					c-1.2-0.8-1.7-2.4-1-3.6c0.7-1.3,2.2-1.8,3.5-1.1c0.6,0.3,4.1,2.5,12.6,14.1c8.7,11.9,13.5,24.8,13.7,25.4
					c0.5,1.4-0.2,2.9-1.6,3.4C1231.3,1943.5,1231,1943.6,1230.7,1943.6z"/>
			</g>
		</g>
		<path class="st3" d="M1169.8,1857.1c0,0-79.4-58.7-92.8-62.7c-13.4-4-44.2,4.3-52.8,24.9c-8.6,20.7-8.2,49.9,5.8,60.6
			c14,10.7,109.1,39.8,109.1,39.8L1169.8,1857.1z"/>
		<g>
			<path class="st7" d="M1496.4,1802.1c-1.3,0-2.4-0.9-2.6-2.2c-0.1-0.3-6.1-31.5-8.3-57c-0.6-7.4-1.4-14.9-2.2-22.7
				c-2-18.9-4.2-40.4-4.8-66.9c-0.8-37,20.8-182.2,21.8-188.4c0.2-1.5,1.6-2.5,3.1-2.3c1.5,0.2,2.5,1.6,2.3,3.1
				c-0.2,1.5-22.5,151-21.7,187.5c0.6,26.3,2.8,47.6,4.7,66.5c0.8,7.8,1.6,15.3,2.2,22.8c2.1,25.2,8.1,56.2,8.2,56.5
				c0.3,1.5-0.7,2.9-2.1,3.1C1496.7,1802.1,1496.5,1802.1,1496.4,1802.1z"/>
		</g>
		<g>
			<path class="st7" d="M1488.5,1627.3c-0.3,0-0.6,0-0.9-0.1c-1.4-0.5-2.2-2-1.7-3.4c0.3-0.9,29.7-87.2,32-98.4
				c2.5-11.7,6.1-19.4,6.3-19.8c0.6-1.3,2.2-1.9,3.6-1.3c1.3,0.6,1.9,2.2,1.3,3.6c0,0.1-3.5,7.6-5.9,18.6
				c-2.4,11.5-31,95.5-32.2,99.1C1490.6,1626.6,1489.6,1627.3,1488.5,1627.3z"/>
		</g>
		<g>
			<path class="st7" d="M1420.1,1677.5c-0.1,0-0.2,0-0.4,0c-1.5-0.2-2.5-1.6-2.3-3c0.1-0.6,8.3-59.8,12.9-116.3
				c4.5-56-43.6-191.7-44.1-193.1c-0.5-1.4,0.2-2.9,1.6-3.4c1.4-0.5,2.9,0.2,3.4,1.6c2,5.6,49,138.2,44.4,195.4
				c-4.6,56.6-12.9,116-12.9,116.6C1422.5,1676.5,1421.4,1677.5,1420.1,1677.5z"/>
		</g>
		<g>
			<path class="st7" d="M1091.1,1702.6c-1.2,0-2.3-0.8-2.6-2.1c-0.1-0.5-11.5-48.4-17.7-120c-6.2-71.7,18.5-239.5,18.7-241.2
				c0.2-1.5,1.6-2.5,3-2.3c1.5,0.2,2.5,1.6,2.3,3c-0.2,1.7-24.9,168.9-18.7,239.9c6.2,71.2,17.5,118.7,17.6,119.2
				c0.3,1.4-0.5,2.9-2,3.2C1091.5,1702.5,1091.3,1702.6,1091.1,1702.6z"/>
		</g>
		<g>
			<path class="st7" d="M1101.5,1785.2c-0.7,0-1.3-0.2-1.8-0.7c-0.5-0.5-48.4-45.2-76.1-52c-8.3-2-16.2-5-23.9-7.8
				c-19-7-38.6-14.2-65.7-8.4c-37.4,8.1-64.8,43.8-65.1,44.2c-0.9,1.2-2.6,1.4-3.8,0.5c-1.2-0.9-1.4-2.6-0.5-3.8
				c1.2-1.5,28.8-37.7,68.2-46.2c28.6-6.2,49,1.3,68.7,8.6c7.9,2.9,15.3,5.7,23.3,7.6c29.1,7.1,76.5,51.4,78.5,53.3
				c1.1,1,1.1,2.7,0.1,3.8C1103,1784.9,1102.2,1785.2,1101.5,1785.2z"/>
		</g>
		<g>
			<path class="st7" d="M1007.1,1742.2c-1.1,0-2.1-0.7-2.5-1.7c-0.1-0.3-12.1-30.7-44.4-34.4c-33.3-3.9-92.6,24.4-93.2,24.7
				c-1.3,0.6-2.9,0.1-3.6-1.3c-0.6-1.3-0.1-2.9,1.3-3.6c2.5-1.2,61.4-29.2,96.1-25.2c35.6,4.2,48.2,36.5,48.8,37.9
				c0.5,1.4-0.2,2.9-1.6,3.5C1007.7,1742.1,1007.4,1742.2,1007.1,1742.2z"/>
		</g>
		<g>
			<path class="st7" d="M1023.8,1712.6c-0.1,0-0.2,0-0.4,0c-1.5-0.2-2.5-1.5-2.3-3c0.1-1.1,14.3-112.5-11.6-164.9
				c-26.1-52.7-71-100.2-71.5-100.6c-1-1.1-1-2.8,0.1-3.8c1.1-1,2.8-1,3.8,0.1c0.5,0.5,46,48.5,72.4,102
				c26.6,53.8,12.7,163.3,12.1,168C1026.3,1711.6,1025.2,1712.6,1023.8,1712.6z"/>
		</g>
		<g>
			<path class="st7" d="M1580.1,1723.6c-0.5,0-1.1-0.2-1.6-0.5c-1.2-0.9-1.5-2.5-0.6-3.7c0.4-0.5,9-12.3,27.5-19.6
				c18.5-7.3,45.2-1.3,46.3-1.1c1.4,0.3,2.4,1.8,2,3.2c-0.3,1.4-1.8,2.3-3.2,2c-0.3-0.1-26.2-5.8-43.2,0.8
				c-16.9,6.6-25,17.6-25.1,17.7C1581.7,1723.2,1580.9,1723.6,1580.1,1723.6z"/>
		</g>
		<g>
			<g>
				<g>
					<path class="st1" d="M974.2,1972.5c4.5-19.5,10-38.2,8.4-58.5c-1.5-18.4-6.9-36.2-10.6-54.3c-7.1-34.8-3-69,0.2-104
						c3.4-36.5-1.2-69.5-6.9-105.5c-6.1-38.6-0.1-76.7-0.5-115.5c-0.4-39.2-29-126.1,26-164.9c21.9-15.4,59.6-27.7,89.3-35.2
						c-39.8,9.1-91.9,24.4-115.8,45.6c-41.4,36.8-15.2,168.6-17.5,279.5c-1.2,56.6-10.8,211.9-19,351h42.7
						C969.4,1997.9,971.2,1985.4,974.2,1972.5z"/>
				</g>
			</g>
		</g>
	</g>
	<g>
		<ellipse class="st8" cx="828.4" cy="968.3" rx="151.7" ry="154.9"/>
		<path class="st9" d="M1660,1154.8v-136.2c0-1.4-2.1-1.4-2.1,0v136.2C1657.9,1156.2,1660,1156.2,1660,1154.8z"/>
		<path class="st9" d="M2557.3,1411.1c3.4,12.9,10.6,24.6,22.4,31.4c14.5,8.3,32,8.1,48.2,8c47.9-0.1,95.8-0.3,143.7-0.4
			c1.4,0,1.4-2.1,0-2.1c-40.9,0.1-81.9,0.2-122.8,0.4c-18,0.1-37.3,1.9-55-2.6c-16.5-4.2-28.3-15.7-33.4-31.8
			c-4.5-14.2-4.4-29.6-3.3-44.3c1.4-18.8,3.9-37.5,5.9-56.3c4.4-41.1,8.8-82.3,13.2-123.4c4.9-46,9.9-92,14.8-138.1
			c0.1-1.3-2-1.3-2.1,0c-9.1,85.1-18.3,170.1-27.4,255.2c-2.2,20.1-4.7,40.2-6.4,60.3C2553.9,1381.9,2553.6,1396.9,2557.3,1411.1z"
			/>
		<path class="st9" d="M2544.3,603.3c12.6,4.5,23.6,12.8,29.3,25.1c7,15.1,5.2,32.6,3.7,48.7c-4.4,47.7-8.8,95.4-13.1,143.1
			c-0.1,1.4-2.2,1.2-2.1-0.2c3.7-40.8,7.5-81.6,11.2-122.3c1.6-17.9,5.2-37,2.3-55c-2.7-16.8-13.1-29.5-28.8-36.1
			c-13.8-5.7-29.1-7-43.9-7.2c-18.8-0.3-37.7,0.5-56.6,0.9c-41.4,0.8-157.7,1.5-199.1,2.3c-46.3,0.9-92.6,1.7-138.8,2.6
			c-1.4,0-1.2-2.1,0.2-2.1c85.5-1.6,246.1-3.2,331.6-4.7c20.2-0.4,40.4-1.1,60.6-1C2515.5,597.3,2530.5,598.3,2544.3,603.3z"/>
		<path class="st9" d="M810.7,841c0.8,11.3,4.3,22.5,13.5,29.7c9.6,7.5,22.4,9.1,34.2,9.4c16.6,0.6,33.3,0.1,49.9,0.2
			c39.3,0,618.7,1.7,658,1.7c1.4,0,1.4-2.1,0-2.1l-101-0.1c-16.8,0-573.9-1.7-590.7-1.7c-13,0-26.7,0.7-39.1-3.7
			c-31.6-11.2-22.4-51.9-20-77.4c3.1-32.6,6.5-65.3,10.1-97.8c4.2-37.4,8.9-74.8,13.9-112.2c0.2-1.3-1.9-1.3-2.1,0
			c-9.3,69.1-17.2,138.5-23.8,207.9C812.2,810.1,809.7,825.7,810.7,841z"/>
		<g>
			<g>
				<g>
					<path class="st10" d="M2365.2,1322.5c2.9-51.5,3-103.1-5.4-154.1c-5.8-35.5-15.2-73.6-33.4-105c-8.3-14.3-22.1-27.5-37.1-29.5
						c-2.2-0.3-4.5-0.4-6.8-0.2c-6.3,0.7-12.8,3.5-19.1,9.3c-11.4,10.7-15.3,26.3-16.6,41.4c-1.9,20.8-1.5,41.9-1.4,62.7
						c0.3,43.1,2.6,86.2,7.1,129.1c4,38.2,8.4,77.1,20.3,113.7c5.1,15.6,12.1,34.3,22.7,49.5v0c1.8,2.5,3.6,4.9,5.6,7.2
						c7.4,8.7,16.3,15.6,27.2,19c41.5,13.1,41.6-46.1,42-71.1C2370.7,1370.4,2368.9,1346.3,2365.2,1322.5z"/>
					<path class="st10" d="M2208.2,1137.1c-4.4-20.8-9.3-41.4-14.8-61.9c-4.9-18.2-10.4-36.4-19.3-53c-14.3-26.8-43.8-55.9-77.1-51
						c-0.6,0.1-1.1,0.2-1.7,0.3c-2.2,0.4-4.4,1.1-6.5,2c-10.9,4.7-19.3,15-26.1,24.3c-10.1,13.9-17.2,29.8-21.7,46.3
						c-9.9,36.1-7.1,73.9,0.8,110c8.7,39.5,21.9,78.5,35.9,116.4c13,35.1,28.2,69.6,47.8,101.5c10.6,17.2,22.4,34,36,49
						c3,3.4,6.4,6.4,9.9,8.9c2.4,1.7,5,3,7.6,4c6.7,2.5,14.1,2.7,21.9-1c40.9-19.4,23.2-71.6,28.2-106.5c1.1,22.6,1.6,45.3,1.5,68
						c0,2.1,3.3,2.1,3.3,0C2234.7,1308,2226.1,1221.6,2208.2,1137.1z"/>
					<path class="st10" d="M2043.1,1357.6c-1.2-32.6-13.4-63.6-22.2-94.6c-8.1-28.4-11.9-60.1-27.6-85.5
						c-9-14.6-17.3-18.9-24.3-16.9c-2.3,0.7-4.4,2-6.4,3.9c-9.2,8.7-14.9,28.9-15.3,46.2c-0.9,45.2,5.4,95.3,29.8,134.3
						c7.4,11.9,17.2,24.2,28.7,33.3c3.3,2.6,6.7,5,10.3,7c1.4,0.8,2.8,1.5,4.3,2.2C2039.4,1396.6,2043.6,1371.1,2043.1,1357.6z"/>
					<path class="st11" d="M2301.2,1446.7c-2.6,26.1-5,52.1-6.8,78.1c-7.9,115.7-10.8,231.6-13.6,347.5c-0.1,4.3-6.7,4.3-6.6,0
						c1.6-64.5,3.2-129,5.7-193.5c3.1-80,9.2-159.6,15.8-239.3v0c2.8-34,5.8-68.1,8.7-102.1c4.7-55.4,7.2-111.1,2.1-166.5
						c-4.2-46.3-13.2-92-24-137.1c2.3-0.2,4.6-0.2,6.8,0.2c11.7,49.2,21.2,99.1,24.8,149.7
						C2320.4,1271.2,2309.9,1359.2,2301.2,1446.7z"/>
					<path class="st11" d="M2235.1,1883.7c-0.6,4.2-7,2.4-6.4-1.8c11.3-78,11.1-157.4-1.6-235.2c-10.7-65.5-33-127.6-49.5-191.6
						c-2.2-8.4-4.2-16.9-6-25.3c-4.6-21.2-8-42.5-9.8-64.1c-2.9-34.9-4.4-69.5-10.9-104c-18.2-96.2-59-190.3-61.8-288.3
						c2.1-0.9,4.2-1.6,6.5-2c1.3,52.8,13.9,104.9,27.9,156c16,58.1,33.9,116.1,40.3,176.3c3.7,35,4,70.1,10.3,104.8
						c1.6,8.5,3.3,17,5.3,25.4c5.4,23.5,12.1,46.7,19,69.8c18.1,61.1,34.6,122,41.2,185.6
						C2246.2,1754.1,2244.4,1819.3,2235.1,1883.7z"/>
					<path class="st11" d="M2197.7,1897.2c-0.6,4.2-7,2.4-6.4-1.8c8.9-62.1-2.2-124.3-23-183c-35.7-100.8-98.8-188.6-142.7-285.6
						c-7.2-15.9-13.8-32.1-19.8-48.5c-25.2-68.6-39.7-140.8-43.3-213.8c2-1.9,4.1-3.3,6.4-3.9c2.2,52.3,10,104.2,23.7,154.8
						c6.4,24,14.4,47.2,23.5,69.9c31.1,78,75.1,149.9,114,224.9C2175.9,1698.6,2212.1,1796.3,2197.7,1897.2z"/>
				</g>
				<path class="st2" d="M2150.7,1861.4v56c0,35.9,29.1,65.1,65.1,65.1h46.6c35.9,0,65.1-29.1,65.1-65.1v-56H2150.7z"/>
			</g>
			<g>
				<path class="st0" d="M2473.4,2016.9H704.5c-4.4,0-8-3.6-8-8v-18.4c0-4.4,3.6-8,8-8h1768.9c4.4,0,8,3.6,8,8v18.4
					C2481.4,2013.3,2477.8,2016.9,2473.4,2016.9z"/>
				<path class="st12" d="M2296.3,1783.8h-793.2c-5.9,0-10.4-5.2-9.6-11.1l61.8-428.5c0.7-4.8,4.8-8.3,9.6-8.3h793.2
					c5.9,0,10.4,5.2,9.6,11.1l-61.8,428.5C2305.2,1780.3,2301.2,1783.8,2296.3,1783.8z"/>
				<path class="st12" d="M1988.2,1682.6h-153.4l42,299.9h153.4L1988.2,1682.6z M1945.6,1924.8c-10.8,0-19.9-7.9-21.4-18.6
					l-19.5-139.6h43.6l18.7,133.7c0.2,1,0.2,2.1,0.2,3.1C1967.3,1915,1957.7,1924.8,1945.6,1924.8z"/>
				<path class="st2" d="M2138.4,1982.5h-422.3v-7.8c0-13.7,11.1-24.8,24.8-24.8h372.7c13.7,0,24.8,11.1,24.8,24.8V1982.5z"/>
				<path class="st2" d="M1678.2,1982.5h-654.7v-7.8c0-13.7,11.1-24.8,24.8-24.8h605.2c13.7,0,24.8,11.1,24.8,24.8V1982.5z"/>
				<g>
					<path class="st13" d="M2001.4,1779.5c-1.6,0-3-1.2-3.2-2.8l-11.6-82.8h-148l10.8,81.9c0.2,1.8-1,3.4-2.8,3.6
						c-1.8,0.2-3.4-1-3.6-2.8l-11.3-85.6c-0.1-0.9,0.2-1.9,0.8-2.6c0.6-0.7,1.5-1.1,2.4-1.1h154.5c1.6,0,3,1.2,3.2,2.8l12,85.6
						c0.2,1.8-1,3.4-2.8,3.6C2001.7,1779.5,2001.5,1779.5,2001.4,1779.5z"/>
				</g>
				<g>
					<path class="st13" d="M1511.4,1779.5c-0.2,0-0.3,0-0.5,0c-1.8-0.3-3-1.9-2.7-3.7l60.3-420.9c0.2-1.6,1.6-2.8,3.2-2.8h780.5
						c1.8,0,3.2,1.4,3.2,3.2c0,1.8-1.4,3.2-3.2,3.2h-777.7l-59.9,418.1C1514.3,1778.3,1512.9,1779.5,1511.4,1779.5z"/>
				</g>
				<g>
					<path class="st13" d="M2304.2,1479.2c-0.1,0-0.3,0-0.4,0c-1.8-0.2-3-1.9-2.8-3.6l11.3-87.2c0.2-1.8,1.9-3,3.6-2.8
						c1.8,0.2,3,1.9,2.8,3.6l-11.3,87.2C2307.2,1478,2305.8,1479.2,2304.2,1479.2z"/>
				</g>
				<g>
					<path class="st13" d="M2287.8,1479.2c-0.1,0-0.3,0-0.4,0c-1.8-0.2-3-1.9-2.8-3.6l11.3-87.2c0.2-1.8,1.8-3,3.6-2.8
						c1.8,0.2,3,1.9,2.8,3.6l-11.3,87.2C2290.7,1478,2289.4,1479.2,2287.8,1479.2z"/>
				</g>
				<g>
					<path class="st13" d="M2271.3,1479.2c-0.1,0-0.3,0-0.4,0c-1.8-0.2-3-1.9-2.8-3.6l11.3-87.2c0.2-1.8,1.8-3,3.6-2.8
						c1.8,0.2,3,1.9,2.8,3.6l-11.3,87.2C2274.3,1478,2272.9,1479.2,2271.3,1479.2z"/>
				</g>
				<g>
					<path class="st13" d="M2254.9,1479.2c-0.1,0-0.3,0-0.4,0c-1.8-0.2-3-1.9-2.8-3.6l11.3-87.2c0.2-1.8,1.9-3,3.6-2.8
						c1.8,0.2,3,1.9,2.8,3.6l-11.3,87.2C2257.9,1478,2256.5,1479.2,2254.9,1479.2z"/>
				</g>
				<g>
					<path class="st13" d="M2238.5,1479.2c-0.1,0-0.3,0-0.4,0c-1.8-0.2-3-1.9-2.8-3.6l11.3-87.2c0.2-1.8,1.8-3,3.6-2.8
						c1.8,0.2,3,1.9,2.8,3.6l-11.3,87.2C2241.5,1478,2240.1,1479.2,2238.5,1479.2z"/>
				</g>
				<g>
					<path class="st13" d="M2222.1,1479.2c-0.1,0-0.3,0-0.4,0c-1.8-0.2-3-1.9-2.8-3.6l11.3-87.2c0.2-1.8,1.8-3,3.6-2.8
						c1.8,0.2,3,1.9,2.8,3.6l-11.3,87.2C2225.1,1478,2223.7,1479.2,2222.1,1479.2z"/>
				</g>
			</g>
		</g>
		<path class="st8" d="M2716.2,1098.4h-244.5c-4.7,0-9.1-1.9-12.3-5.3c-3.2-3.4-4.9-7.9-4.6-12.7l15-244.1c0.6-8.9,8-15.9,16.9-15.9
			h244.5c4.7,0,9.1,1.9,12.3,5.3c3.2,3.4,4.9,7.9,4.6,12.7l-15,244.1C2732.6,1091.4,2725.1,1098.4,2716.2,1098.4z"/>
		<path class="st8" d="M940.9,679.3H754.2c-3.2,0-6.1-1.3-8.3-3.6c-2.2-2.3-3.2-5.3-3-8.5l10.9-171.5c0.4-6,5.3-10.6,11.3-10.6
			h186.7c3.2,0,6.1,1.3,8.3,3.6c2.2,2.3,3.2,5.3,3,8.5l-10.9,171.5C951.8,674.6,946.9,679.3,940.9,679.3z"/>
		<path class="st8" d="M1755.8,1036h-174.7c-4.4,0-8.5-1.8-11.5-5c-3-3.2-4.5-7.4-4.2-11.8l10.1-159.7c0.5-8.3,7.5-14.8,15.8-14.8
			h174.7c4.4,0,8.5,1.8,11.5,5c3,3.2,4.5,7.4,4.2,11.8l-10.1,159.7C1771,1029.5,1764.1,1036,1755.8,1036z"/>
		<path class="st8" d="M2914.2,1565.8h-196.5c-3.3,0-6.4-1.3-8.7-3.8c-2.3-2.4-3.4-5.6-3.2-8.9l11.5-180.5
			c0.4-6.3,5.6-11.2,11.9-11.2h196.5c3.3,0,6.4,1.3,8.7,3.8c2.3,2.4,3.4,5.6,3.2,8.9l-11.5,180.5
			C2925.7,1560.9,2920.5,1565.8,2914.2,1565.8z"/>
		<path class="st8" d="M1924.7,593.1h-439.1c-6,0-11.6-2.4-15.7-6.8c-4.1-4.4-6.1-10.1-5.7-16.1l25.2-340.4
			c0.8-11.1,10.2-19.8,21.3-19.8h439.1c6,0,11.6,2.4,15.7,6.8c4.1,4.4,6.1,10.1,5.7,16.1l-25.2,340.4
			C1945.2,584.4,1935.9,593.1,1924.7,593.1z"/>
		<path class="st2" d="M2582,1065.5c0.2-2.1,0.4-4.2,0.6-6.3c4-45.4,8-90.7,12-136.1c0.1-1.4-2-1.3-2.1,0
			c-4.2,47.2-8.3,94.5-12.5,141.7C2580.7,1065,2581.3,1065.2,2582,1065.5z"/>
		<path class="st9" d="M861.6,968.3c-57.1-1-114.1-2-171.2-3c-46.6-0.8-95,1.4-140.7-9.4c-19.4-4.6-38.4-11.8-54.4-23.9
			c-18.2-13.7-30.5-32.9-36.7-54.7c-6.7-23.2-7.1-47.8-6.8-71.8c0.4-28.1,1.5-56.3,3.2-84.4c0.3-5.7,0.7-11.5,1.1-17.2
			c-0.7,0-1.4-0.1-2.1-0.2c-1.9,28.6-3.2,57.2-3.9,85.9c-0.6,24.4-1.2,49.1,3.1,73.3c3.9,21.8,12.4,42.6,27.7,58.9
			c13.4,14.3,30.8,24.1,49.1,30.5c42.5,14.9,88.9,13.8,133.3,14.5c66.1,1.2,132.2,2.3,198.4,3.5C863,970.4,863,968.3,861.6,968.3z"
			/>
		<ellipse class="st8" cx="458.2" cy="686.9" rx="96.6" ry="98.6"/>
		<ellipse class="st8" cx="331.8" cy="1072.5" rx="96.6" ry="98.6"/>
		<ellipse class="st8" cx="629.9" cy="1360.1" rx="96.6" ry="98.6"/>
		<path class="st9" d="M1601.8,775.4c-3.2-17.5-9.7-35.7-24.2-47c-15.7-12.2-36.6-12.7-54-21.5c-21.7-11-24.9-34.1-23.5-56.2
			c1.1-18.2,3-36.4,4.9-54.6c-0.7,0.1-1.3,0.2-2,0.2c-1.1,12.2-2.3,24.3-3.4,36.5c-1.8,19.5-5.3,42.2,5.3,59.9
			c9.9,16.6,29.1,20.7,46.3,25.8c10.3,3.1,20.6,7,28.6,14.5c7.6,7.1,12.5,16.4,15.8,26.1c7.3,21.6,7.7,45.4,8.9,67.9
			c3.4,60.8,2.6,121.8-2.3,182.4c-0.1,1.4,2,1.3,2.1,0c4.3-54.5,5.4-109.2,3.2-163.8C1606.5,822.2,1606,798.4,1601.8,775.4z"/>
		<path class="st9" d="M1871,597.1c0,0.3-0.1,0.7-0.1,1c-3.2,22.1-5.6,44.7-11.7,66.3c-5.8,20.5-16.2,39.3-35.2,50.2
			c-9.6,5.5-20,9.1-29.9,13.8c-8.6,4.1-16.6,9.2-23.7,15.5c-28.3,24.8-41.4,63-47.4,99.1c-8.5,51.6-3.9,105.4-23,155
			c-0.5,1.3,1.5,1.8,2,0.6c17.3-44.8,15.5-93.3,21-140.3c4.5-38.8,15.8-80.7,44.5-108.9c7-6.9,14.9-12.7,23.6-17.2
			c9.8-5.1,20.3-8.6,30-13.6c17.4-9,29-23.5,36.1-41.6c7.7-19.7,10.2-41,13.3-61.8c0.9-5.9,1.7-11.8,2.5-17.7
			C1872.3,597.4,1871.7,597.2,1871,597.1z"/>
		<ellipse class="st14" cx="443.5" cy="671.1" rx="96.6" ry="98.6"/>
		<path class="st15" d="M2703.8,1080.6h-289.5c-7.5,0-13.5-6.4-13-13.9l16.9-266.3c0.4-6.9,6.1-12.2,13-12.2h289.5
			c7.5,0,13.5,6.4,13,13.9l-16.9,266.3C2716.4,1075.2,2710.7,1080.6,2703.8,1080.6z"/>
		<g>
			<path class="st12" d="M2525.7,860.2l-0.8,12.3c-0.2,3-2.7,5.3-5.7,5.3l-45.2,0.4c-3.3,0-5.9-2.8-5.7-6.1l0.8-12.3
				c0.2-3,2.7-5.3,5.7-5.3l45.2-0.4C2523.3,854.1,2526,856.9,2525.7,860.2z"/>
			<path class="st12" d="M2521.8,925.6l-0.8,12.3c-0.2,3-2.7,5.3-5.7,5.3l-45.2,0.4c-3.3,0-5.9-2.8-5.7-6.1l0.8-12.3
				c0.2-3,2.7-5.3,5.7-5.3l45.2-0.4C2519.4,919.6,2522,922.3,2521.8,925.6z"/>
			<path class="st12" d="M2516.7,997.3l-0.8,12.3c-0.2,3-2.7,5.3-5.7,5.3l-45.2,0.4c-3.3,0-5.9-2.8-5.7-6.1l0.8-12.3
				c0.2-3,2.7-5.3,5.7-5.3l45.2-0.4C2514.3,991.2,2516.9,994,2516.7,997.3z"/>
		</g>
		<g>
			<path class="st16" d="M2678,859.6l-0.8,12.3c-0.2,3-2.7,5.3-5.7,5.3l-110.5,0.4c-3.3,0-5.9-2.8-5.7-6.1l0.8-12.3
				c0.2-3,2.7-5.3,5.7-5.3l110.5-0.4C2675.6,853.6,2678.2,856.3,2678,859.6z"/>
			<path class="st16" d="M2652.9,925.1l-0.8,12.3c-0.2,3-2.7,5.3-5.7,5.3l-89.4,0.4c-3.3,0-5.9-2.8-5.7-6.1l0.8-12.3
				c0.2-3,2.7-5.3,5.7-5.3l89.4-0.4C2650.5,919,2653.2,921.8,2652.9,925.1z"/>
			<path class="st16" d="M2626.8,996.8l-0.8,12.3c-0.2,3-2.7,5.3-5.7,5.3l-68.3,0.4c-3.3,0-5.9-2.8-5.7-6.1l0.8-12.3
				c0.2-3,2.7-5.3,5.7-5.3l68.3-0.4C2624.4,990.7,2627,993.5,2626.8,996.8z"/>
		</g>
		<path class="st16" d="M926.8,665.6H730.2c-6.3,0-11.2-5.3-10.8-11.6l11.5-180.5c0.4-5.7,5.1-10.2,10.8-10.2h196.5
			c6.3,0,11.2,5.3,10.8,11.6l-11.5,180.5C937.2,661.1,932.5,665.6,926.8,665.6z"/>
		<path class="st14" d="M1741.4,1020.1h-186.6c-9.1,0-16.4-7.7-15.8-16.8l10.8-170.6c0.5-8.3,7.4-14.8,15.8-14.8h186.6
			c9.1,0,16.4,7.7,15.8,16.8l-10.8,170.6C1756.6,1013.6,1749.7,1020.1,1741.4,1020.1z"/>
		<path class="st9" d="M778.3,840.3c-28.9,49.2-57.7,98.5-86.6,147.7c-23.6,40.2-45.3,83.5-77.2,118c-13.5,14.6-29.2,27.7-47.5,35.7
			c-20.8,9.1-43.6,10.4-65.7,5.2c-23.5-5.6-45.1-17.2-65.9-29.3c-24.3-14.2-48.3-28.9-72-44.1c-4.8-3.1-9.6-6.3-14.5-9.4
			c-0.4,0.6-0.8,1.2-1.2,1.7c24,15.7,48.3,30.9,72.9,45.6c21,12.5,42.2,25.2,65.4,33.3c20.9,7.3,43.2,10.1,64.9,4.7
			c19-4.7,36.1-15,50.7-27.9c33.8-29.7,55.6-70.7,78-109.1c33.4-57.1,66.9-114.1,100.3-171.2C780.8,840.2,779,839.1,778.3,840.3z"/>
		
			<ellipse transform="matrix(0.4904 -0.8715 0.8715 0.4904 -762.7599 813.4686)" class="st14" cx="314.2" cy="1059" rx="96.6" ry="98.6"/>
		<path class="st9" d="M778.5,865.5c14.6,55.2,29.1,110.4,43.7,165.6c11.9,45.1,27.2,91,29.3,137.9c0.9,19.9-0.9,40.2-8.2,58.9
			c-8.2,21.2-23.4,38.3-42.6,50.2c-20.6,12.7-44,19.9-67.2,26.1c-27.2,7.3-54.6,13.9-82.1,19.9c-5.6,1.2-11.2,2.4-16.9,3.6
			c0.2,0.7,0.3,1.4,0.4,2.1c28-5.9,56-12.5,83.7-19.6c23.7-6.1,47.6-12.2,69.7-22.9c19.9-9.7,37.6-23.6,49.2-42.7
			c10.1-16.8,14.8-36.2,16-55.6c2.8-45-10.9-89.3-22.3-132.2c-16.9-63.9-33.8-127.9-50.6-191.8C780.2,863.7,778.2,864.2,778.5,865.5
			z"/>
		
			<ellipse transform="matrix(0.9623 -0.2721 0.2721 0.9623 -344.0999 215.8628)" class="st14" cx="606.4" cy="1348.8" rx="98.6" ry="96.6"/>
		<path class="st15" d="M896.7,520.1l-1,15.3c-0.2,3.7-3.3,6.6-7.1,6.6l-107.6,0.5c-4.1,0-7.3-3.4-7.1-7.5l1-15.3
			c0.2-3.7,3.3-6.6,7.1-6.6l107.6-0.5C893.7,512.6,896.9,516,896.7,520.1z"/>
		<path class="st15" d="M893.5,582.3l-1,15.3c-0.2,3.7-3.3,6.6-7.1,6.6l-107.6,0.5c-4.1,0-7.3-3.4-7.1-7.5l1-15.3
			c0.2-3.7,3.3-6.6,7.1-6.6l107.6-0.5C890.5,574.7,893.8,578.2,893.5,582.3z"/>
		<path class="st14" d="M2897.4,1544.7h-196.5c-6.3,0-11.2-5.3-10.8-11.6l11.5-180.5c0.4-5.7,5.1-10.2,10.8-10.2h196.5
			c6.3,0,11.2,5.3,10.8,11.6l-11.5,180.5C2907.9,1540.3,2903.1,1544.7,2897.4,1544.7z"/>
		<g>
			<path class="st15" d="M2153.6,882.6h-252c-6.8,0-12.2-5.8-11.7-12.6l3.5-42.2c0.5-6.1,5.5-10.8,11.7-10.8h252
				c6.8,0,12.2,5.8,11.7,12.6l-3.5,42.2C2164.8,877.9,2159.7,882.6,2153.6,882.6z"/>
			<path class="st15" d="M1939.7,870.5c-1.3-0.7-2-0.1-3.6,0.4c-5.9,2.2-11,4-17,4.8c0-0.6,0-1.2,0-1.8c0-1.5-2.5-0.9-2.5,0.6
				c-0.2,7-0.2,13.9,0,20.8c0.1,4-1,9.7,2.1,12.3c0.6,0.5,1.6-0.1,1.9-0.7c3.6-6.5,7.2-12.9,10.8-19.4c2.8-4.9,7.2-10.8,8.7-16
				C1940.3,871.1,1940,870.6,1939.7,870.5z"/>
			<path class="st14" d="M2102.5,848l-0.7,6.7c-0.2,3.7-3.3,6.6-7.1,6.6l-137.2-0.6c-4.1,0-7.4-3.5-7.1-7.6l0.7-6.7
				c0.2-3.7,3.3-6.6,7.1-6.6l137.2,0.6C2099.5,840.4,2102.8,843.9,2102.5,848z"/>
		</g>
		<path class="st8" d="M1262.2,763h-172.8c-2.9,0-5.7-1.3-7.8-3.7c-3.1-3.5-4.4-9-3.7-14.6l7.3-66.8c1.2-9,7.3-15.7,14.1-15.7h172.8
			c2.9,0,5.7,1.3,7.8,3.7c3.1,3.5,4.4,9,3.7,14.6l-7.3,66.8C1275.1,756.3,1269,763,1262.2,763z"/>
		<path class="st16" d="M1249.4,746.8h-181.7c-7.3,0-12.3-8.3-11-18.1l7.7-70.3c1.2-8.8,7.2-15.6,13.7-15.6h181.7
			c7.3,0,12.3,8.3,11,18.1l-7.7,70.3C1261.9,740.1,1255.9,746.8,1249.4,746.8z"/>
		<path class="st15" d="M1239.8,688.6l-0.7,6.7c-0.2,3.7-3.3,6.6-7.1,6.6l-137.1,0.5c-4.1,0-7.3-3.4-7.1-7.5l0.7-6.7
			c0.2-3.7,3.3-6.6,7.1-6.6l137.1-0.5C1236.9,681,1240.1,684.5,1239.8,688.6z"/>
		<ellipse class="st10" cx="802.6" cy="953.6" rx="151.7" ry="154.9"/>
		<g>
			<path class="st15" d="M1905.1,568.9h-458.8c-12.4,0-22.1-10.5-21.2-22.9l26.3-355.6c0.8-11.1,10.1-19.7,21.2-19.7h458.8
				c12.4,0,22.1,10.5,21.2,22.9l-26.3,355.6C1925.5,560.3,1916.2,568.9,1905.1,568.9z"/>
			<path class="st16" d="M1606.3,356.1H1553c-3.3,0-5.9-2.8-5.7-6.1l9.1-116.2c0.2-3,2.7-5.3,5.7-5.3h53.3c3.3,0,5.9,2.8,5.7,6.1
				l-9.1,116.2C1611.7,353.8,1609.2,356.1,1606.3,356.1z"/>
			<g>
				<path class="st14" d="M1889.9,237.4l-0.7,11.5c-0.2,2.8-2.5,5-5.3,5l-239.6,0.4c-3.1,0-5.5-2.6-5.3-5.7l0.7-11.5
					c0.2-2.8,2.5-5,5.3-5l239.6-0.4C1887.6,231.8,1890.1,234.4,1889.9,237.4z"/>
				<path class="st14" d="M1761.2,288.9l-0.7,11.5c-0.2,2.8-2.5,5-5.3,5l-113.2,0.4c-3.1,0-5.5-2.6-5.3-5.7l0.7-11.5
					c0.2-2.8,2.5-5,5.3-5l113.2-0.4C1758.9,283.2,1761.4,285.8,1761.2,288.9z"/>
				<path class="st16" d="M1851.9,339.2l-0.7,11.5c-0.2,2.8-2.5,5-5.3,5l-208,0.4c-3.1,0-5.5-2.6-5.3-5.7l0.7-11.5
					c0.2-2.8,2.5-5,5.3-5l208-0.4C1849.7,333.5,1852.1,336.1,1851.9,339.2z"/>
			</g>
			<g>
				<path class="st12" d="M1528.9,236l-0.7,11.5c-0.2,2.8-2.5,5-5.3,5l-16.2,0.4c-3.1,0-5.5-2.6-5.3-5.7l0.7-11.5
					c0.2-2.8,2.5-5,5.3-5l16.2-0.4C1526.6,230.3,1529.1,232.9,1528.9,236z"/>
				<path class="st12" d="M1526.6,287.5l-0.7,11.5c-0.2,2.8-2.5,5-5.3,5l-16.2,0.4c-3.1,0-5.5-2.6-5.3-5.7l0.7-11.5
					c0.2-2.8,2.5-5,5.3-5l16.2-0.4C1524.3,281.8,1526.8,284.4,1526.6,287.5z"/>
				<path class="st12" d="M1522.5,337.8l-0.7,11.5c-0.2,2.8-2.5,5-5.3,5l-16.2,0.4c-3.1,0-5.5-2.6-5.3-5.7l0.7-11.5
					c0.2-2.8,2.5-5,5.3-5l16.2-0.4C1520.3,332.1,1522.7,334.7,1522.5,337.8z"/>
			</g>
			<g>
				<path class="st12" d="M1516.6,391.4l-0.7,11.5c-0.2,2.8-2.5,5-5.3,5l-16.2,0.4c-3.1,0-5.5-2.6-5.3-5.7l0.7-11.5
					c0.2-2.8,2.5-5,5.3-5l16.2-0.4C1514.3,385.7,1516.8,388.3,1516.6,391.4z"/>
				<path class="st12" d="M1514.3,442.9l-0.7,11.5c-0.2,2.8-2.5,5-5.3,5l-16.2,0.4c-3.1,0-5.5-2.6-5.3-5.7l0.7-11.5
					c0.2-2.8,2.5-5,5.3-5l16.2-0.4C1512.1,437.2,1514.5,439.8,1514.3,442.9z"/>
				<path class="st12" d="M1510.2,493.2l-0.7,11.5c-0.2,2.8-2.5,5-5.3,5l-16.2,0.4c-3.1,0-5.5-2.6-5.3-5.7l0.7-11.5
					c0.2-2.8,2.5-5,5.3-5l16.2-0.4C1508,487.5,1510.4,490.1,1510.2,493.2z"/>
			</g>
			<path class="st16" d="M1595.7,514.1h-53.3c-3.3,0-5.9-2.8-5.7-6.1l9.1-116.2c0.2-3,2.7-5.3,5.7-5.3h53.3c3.3,0,5.9,2.8,5.7,6.1
				l-9.1,116.2C1601.2,511.8,1598.7,514.1,1595.7,514.1z"/>
			<g>
				<path class="st16" d="M1879.3,395.5l-0.7,11.5c-0.2,2.8-2.5,5-5.3,5l-239.6,0.4c-3.1,0-5.5-2.6-5.3-5.7l0.7-11.5
					c0.2-2.8,2.5-5,5.3-5l239.6-0.4C1877.1,389.8,1879.5,392.4,1879.3,395.5z"/>
				<path class="st16" d="M1834.9,446.9l-0.7,11.5c-0.2,2.8-2.5,5-5.3,5l-197.4,0.4c-3.1,0-5.5-2.6-5.3-5.7l0.7-11.5
					c0.2-2.8,2.5-5,5.3-5l197.4-0.4C1832.7,441.3,1835.1,443.9,1834.9,446.9z"/>
				<path class="st16" d="M1765.5,497.2l-0.7,11.5c-0.2,2.8-2.5,5-5.3,5l-132.1,0.4c-3.1,0-5.5-2.6-5.3-5.7l0.7-11.5
					c0.2-2.8,2.5-5,5.3-5l132.1-0.4C1763.3,491.5,1765.7,494.1,1765.5,497.2z"/>
			</g>
		</g>
		<path class="st9" d="M2101.4,335.4h-136.2c-1.4,0-1.4,2.1,0,2.1h136.2C2102.8,337.5,2102.8,335.4,2101.4,335.4z"/>
		<path class="st9" d="M2119.7,551.7H1949c-1.4,0-1.4,2.1,0,2.1h170.7C2121.1,553.8,2121.1,551.7,2119.7,551.7z"/>
		<g class="st8">
			<path d="M2331.6,277.1c-2.1-2.2-5-3.5-8.1-3.5h-215.3c-5.7,0-10.6,4.5-11,10.2l-12.4,166.9c-0.2,3.1,0.8,6.1,2.9,8.3
				c2.1,2.2,5,3.5,8.1,3.5h215.3c5.7,0,10.6-4.5,11-10.2l12.4-166.9C2334.8,282.4,2333.7,279.3,2331.6,277.1z"/>
			<path d="M2308.8,515.1h-215.3c-5.7,0-10.6,4.5-11,10.2l-12.4,166.9c-0.2,3.1,0.8,6.1,2.9,8.3c2.1,2.2,5,3.5,8.1,3.5h215.3
				c5.7,0,10.6-4.5,11-10.2l12.4-166.9c0.2-3.1-0.8-6.1-2.9-8.3C2314.8,516.4,2311.8,515.1,2308.8,515.1z"/>
		</g>
		<g>
			<g>
				<path class="st16" d="M2275,687.9h-215.3c-5.8,0-10.4-4.9-10-10.7l12.4-166.9c0.4-5.2,4.7-9.2,10-9.2h215.3
					c5.8,0,10.4,4.9,10,10.7L2285,678.7C2284.6,683.9,2280.2,687.9,2275,687.9z"/>
			</g>
		</g>
		<g>
			<g>
				<path class="st16" d="M2290.8,438.3h-215.3c-5.8,0-10.4-4.9-10-10.7l12.4-166.9c0.4-5.2,4.7-9.2,10-9.2h215.3
					c5.8,0,10.4,4.9,10,10.7L2300.8,429C2300.4,434.2,2296,438.3,2290.8,438.3z"/>
			</g>
		</g>
		<g>
			<path class="st15" d="M2272.4,313.7l-0.8,8.1c-0.2,3-2.7,5.3-5.7,5.3l-148.4,0.4c-3.3,0-5.9-2.8-5.7-6.1l0.8-8.1
				c0.2-3,2.7-5.3,5.7-5.3l148.4-0.4C2270,307.6,2272.6,310.4,2272.4,313.7z"/>
			<path class="st15" d="M2267,364.4l-0.8,8.1c-0.2,3-2.7,5.3-5.7,5.3l-148.4,0.4c-3.3,0-5.9-2.8-5.7-6.1l0.8-8.1
				c0.2-3,2.7-5.3,5.7-5.3l148.4-0.4C2264.6,358.3,2267.3,361.1,2267,364.4z"/>
		</g>
		<g>
			<path class="st15" d="M2258.7,563.3l-0.8,8.1c-0.2,3-2.7,5.3-5.7,5.3l-148.4,0.4c-3.3,0-5.9-2.8-5.7-6.1l0.8-8.1
				c0.2-3,2.7-5.3,5.7-5.3l148.4-0.4C2256.3,557.3,2258.9,560.1,2258.7,563.3z"/>
			<path class="st15" d="M2253.4,614l-0.8,8.1c-0.2,3-2.7,5.3-5.7,5.3l-148.4,0.4c-3.3,0-5.9-2.8-5.7-6.1l0.8-8.1
				c0.2-3,2.7-5.3,5.7-5.3l148.4-0.4C2250.9,608,2253.6,610.8,2253.4,614z"/>
		</g>
		<ellipse class="st8" cx="1667.1" cy="1187.4" rx="83.2" ry="85"/>
		
			<ellipse transform="matrix(0.4904 -0.8715 0.8715 0.4904 -182.9031 2038.7579)" class="st16" cx="1651.9" cy="1175.8" rx="83.2" ry="85"/>
	</g>
	<g>
		<g>
			<path class="st2" d="M1419.3,1151.3c-1.6-2.3-3.5-4.3-5.6-6.1c-2.1-2-4.4-3.5-7.1-4.8c-2.6-1.5-5.4-2.5-8.2-3.1
				c-1.3-0.3-2.8-0.7-4.1-0.8c-1.2-0.2-2.5-0.2-3.6-0.2c-6.1,0-11.7,1.6-16.8,4.4l0,0c-7.7,4.1-14.1,11.3-17.8,20.1
				c-0.7,1.8-1.5,3.8-2,5.9l0,0c0,0.3-0.2,0.8-0.3,1.2l0,0c0,0.3,0,0.7-0.2,1c-0.2,1.2-0.3,2.5-0.5,3.6c-1.2,10.7,1.5,21.2,7.6,29.4
				c0.5,0.7,1,1.5,1.6,2.1c6.1,7.2,14.3,11.7,23.4,12.7c0.8,0,1.8,0.2,2.6,0.2c0.3,0,0.8,0,1.2,0c8.7,0,16.9-3.3,23.8-9.4
				c7.7-6.7,12.7-16.4,13.8-27.1C1428.2,1170,1425.6,1159.7,1419.3,1151.3z M1418.5,1179.9c-0.8,8.6-4.8,16.3-10.9,21.5
				c-5.3,4.6-11.5,7.1-18.1,7.1c-1,0-2,0-3-0.2c-7.6-0.8-14.3-4.8-19.1-11.3c-4.8-6.6-6.9-15-6.1-23.4c0-0.8,0.2-1.8,0.3-2.8
				c2.8-15.1,15-26,28.8-26c1,0,1.8,0,2.8,0c1.5,0.2,2.8,0.5,4.1,0.8c4.3,1.2,8.1,3.3,11.3,6.6c1.3,1.2,2.5,2.5,3.5,3.9
				C1417.3,1162.9,1419.5,1171.3,1418.5,1179.9z"/>
		</g>
		<g>
			<path class="st2" d="M1339.9,1159c-0.2-0.5-0.2-1-0.3-1.5c-1.2-5.8-3.5-11-6.9-15.6c-1.5-2.1-3.3-3.9-5.1-5.8
				c-0.2-0.2-0.3-0.3-0.5-0.5c-5.4-4.8-12.2-7.7-19.4-8.6c-1.3-0.2-2.6-0.2-3.8-0.2c-5.6,0-10.9,1.3-15.8,3.8
				c-5.4,2.6-10,6.7-13.8,11.7c-1.6,2.3-3.1,4.8-4.3,7.4c-2,4.1-3.3,8.7-3.8,13.5c-2.5,22.2,12.3,41.9,32.7,44.1
				c1.2,0.2,2.5,0.2,3.6,0.2c18.9,0,35.5-15.6,37.7-36.4c0.2-1.3,0.2-2.5,0.2-3.6C1340.5,1164.8,1340.4,1161.8,1339.9,1159z
				 M1331.8,1170.5c-2,17.4-16.3,30.3-32.1,28.6c-15.8-1.6-27-17.3-25.2-34.7c1.8-16.4,14.6-28.8,29.3-28.8c0.8,0,1.8,0,2.8,0.2
				c7.6,0.8,14.3,4.8,19.1,11.3C1330.5,1153.6,1332.6,1162,1331.8,1170.5z"/>
		</g>
		<g>
			<path class="st2" d="M1354.8,1169.2c-5.1-0.5-10.2-1.2-15.3-1.6c-1.2-0.2-2.1-0.3-3-1.3c-0.8-0.8-1.3-2-1.3-3
				c0.2-2.1,2-4.6,4.3-4.3c5.1,0.5,10.2,1.2,15.3,1.6c1.2,0.2,2.1,0.3,3,1.3c0.8,0.8,1.3,2,1.3,3
				C1359.1,1167.1,1357.3,1169.5,1354.8,1169.2L1354.8,1169.2z"/>
		</g>
		<g>
			<path class="st2" d="M1272.1,1151.4c-10-7.1-13.1-7-23.6-13.6c-2-1.2-2.8-3.8-1.5-5.9c1.2-2,3.9-2.8,5.9-1.5
				c10.4,6.6,13.4,6.5,23.6,13.6c1.8,1.3,2.8,3.8,1.5,5.9C1276.9,1151.8,1274.1,1152.7,1272.1,1151.4L1272.1,1151.4z"/>
		</g>
	</g>
	<g>
		<g>
			<g>
				<path class="st15" d="M1755,1474.5c1-6.4-2.6-11.5-14.2-17.1c-9-4.4-19.1-9.9-17.6-23.5c0.6-5.8,3.7-13.9,13.1-19.6l-28.1,0.2
					l-12.4,80.1l22.5-0.2C1740.2,1494.2,1753,1487.4,1755,1474.5z"/>
				<path class="st15" d="M1761.7,1467.4c0.4,1.6,0.5,3.4,0.4,5.3l18.2-0.1l0.8-5.3L1761.7,1467.4z"/>
				<path class="st15" d="M1754.6,1456.8c2,1.6,3.7,3.3,5,5.3l22.3-0.2l0.8-5.3L1754.6,1456.8z"/>
				<path class="st15" d="M1779.4,1477.9l-18.1,0.1c-0.5,1.7-1.2,3.5-2.3,5.4l19.6-0.1L1779.4,1477.9z"/>
				<path class="st15" d="M1788.5,1419.2l0.8-5.3l-23.3,0.2c-9,0.1-18.8,1.2-26.1,5.5L1788.5,1419.2z"/>
				<path class="st15" d="M1755.1,1488.8c-1.8,1.9-4,3.7-6.8,5.4l28.7-0.2l0.8-5.3L1755.1,1488.8z"/>
				<path class="st15" d="M1733.7,1424.9c-1.2,1.6-2.1,3.3-2.8,5.4l55.9-0.4l0.8-5.3L1733.7,1424.9z"/>
				<path class="st15" d="M1736.1,1446.3c2.1,1.4,4.8,2.9,8.1,4.4c0.6,0.3,1.2,0.5,1.7,0.8l37.6-0.3l0.8-5.3L1736.1,1446.3z"/>
				<path class="st15" d="M1730.1,1435.6c-0.1,2,0.3,3.7,1.2,5.3l53.9-0.4l0.8-5.3L1730.1,1435.6z"/>
			</g>
			<g>
				<polygon class="st15" points="1662.4,1534.8 1667.9,1534.7 1671.3,1513.1 1665.8,1513.2 				"/>
				<path class="st15" d="M1670.1,1502.7c-0.9,0-1.8,0.3-2.5,1c-0.7,0.6-1.1,1.4-1.3,2.2s0.1,1.6,0.6,2.2c0.5,0.6,1.3,0.9,2.2,0.9
					c0.9,0,1.8-0.3,2.5-0.9c0.7-0.6,1.1-1.4,1.3-2.3c0.1-0.9-0.1-1.6-0.6-2.2C1671.8,1503.1,1671.1,1502.7,1670.1,1502.7z"/>
				<path class="st15" d="M1681.1,1531.1l0.9-6.1l7.7-0.1l0.5-3.1l-7.7,0.1l0.9-5.9c0-0.2,0.1-0.4,0.5-0.4l8.8-0.1l0.4-2.6
					l-10.4,0.1c-1.8,0-3,0.5-3.8,1.4c-0.7,0.8-1.1,2-1.3,3.4l-2,12.6c-0.2,1.4,0,2.5,0.5,3.2c0.6,0.7,1.5,1,2.7,1l10.9-0.1l0.4-2.6
					l-8.2,0.1C1681.2,1532,1681,1531.6,1681.1,1531.1z"/>
				<path class="st15" d="M1712.3,1525.1c0-0.1-0.1-0.1-0.1-0.2c-0.4-0.7-1.1-2.1-2.3-4.3c-1.1-2.2-2.2-4.1-3.1-5.7
					c-0.4-0.7-0.8-1.2-1.4-1.5c-0.5-0.4-1.3-0.6-2.1-0.6c-1.1,0-2.1,0.3-2.9,0.9c-0.8,0.6-1.3,1.5-1.5,2.7l-2.8,18l3.2,0l2.5-16.5
					c0,0,0,0,0,0c0.2,0.4,0.8,1.6,1.7,3.3c0.9,1.8,2.4,4.7,4.4,8.7l1.3,2.5c0.2,0.4,0.4,0.8,0.6,1.1c0.2,0.4,0.5,0.7,0.8,0.9
					c0.3,0.3,0.8,0.4,1.3,0.4c0.9,0,1.4-0.3,1.8-0.8c0.2-0.4,0.4-1,0.6-1.9l3-19.4l-3.2,0L1712.3,1525.1z"/>
				<polygon class="st15" points="1841.3,1511.9 1840.8,1514.9 1845.1,1514.9 1842.2,1533.4 1847.7,1533.4 1850.6,1514.9 
					1854.8,1514.8 1855.3,1511.8 				"/>
				<path class="st15" d="M1751.9,1530.6l0.9-6.1l7.7-0.1l0.5-3.1l-7.7,0.1l0.9-5.9c0-0.2,0.1-0.4,0.5-0.4l8.8-0.1l0.4-2.6
					l-10.4,0.1c-1.8,0-3,0.5-3.8,1.4c-0.7,0.8-1.1,2-1.3,3.4l-2,12.6c-0.2,1.4,0,2.5,0.5,3.2c0.6,0.7,1.5,1,2.7,1l10.9-0.1l0.4-2.6
					l-8.2,0.1C1752,1531.5,1751.8,1531.1,1751.9,1530.6z"/>
				<path class="st15" d="M1733.7,1532c-0.3,0-0.5,0.1-0.8,0.1c-2.1,0-3.4-0.8-4-2.5c-0.6-1.8-0.7-4-0.3-6.5
					c0.2-1.4,0.6-2.8,1.2-4.1c0.6-1.3,1.3-2.3,2.3-3.1c0.9-0.8,2-1.2,3.2-1.2c2.2,0,4.1,1.5,5,3.9l2.8-1.3c-0.9-1.8-1.7-3-3.2-4
					c-1.2-0.8-2.7-1.2-4.7-1.2c-2.1,0-4.2,0.6-6,1.6c-1.8,1-3.4,2.4-4.5,4.1c-1.2,1.7-1.9,3.6-2.2,5.6c0,0.1,0,0.1,0,0.2h0
					c0,0,0,0,0,0.1c0,0.2,0,0.5-0.1,0.7c0,0.1,0,0.2,0,0.3c-0.1,1.6,0.1,3.2,0.6,4.6c0.1,0.2,0.2,0.4,0.3,0.6c0,0.1,0.1,0.2,0.1,0.2
					c0.1,0.2,0.2,0.4,0.4,0.6c0.1,0.2,0.3,0.4,0.4,0.6c0.1,0.1,0.1,0.2,0.2,0.3l0,0c0.2,0.3,0.5,0.5,0.7,0.8
					c0.1,0.1,0.3,0.3,0.4,0.4c0.1,0.1,0.2,0.2,0.3,0.3c0.1,0.1,0.3,0.2,0.4,0.3c1.5,1,3.4,1.5,5.5,1.5c2,0,3.7-0.5,5.1-1.3
					c1.8-1.1,3-2.3,4.5-4.1l-2.4-1.2C1737.5,1530.2,1735.6,1531.6,1733.7,1532z"/>
				<path class="st15" d="M1648.9,1532.7c-0.3,0-0.5,0.1-0.8,0.1c-2.1,0-3.4-0.8-4-2.5c-0.6-1.8-0.7-4-0.3-6.5
					c0.2-1.4,0.6-2.8,1.2-4.1c0.6-1.3,1.3-2.3,2.3-3.1c0.9-0.8,2-1.2,3.2-1.2c2.2,0,4.1,1.5,5,3.9l2.8-1.3c-0.9-1.8-1.7-3-3.2-4
					c-1.2-0.8-2.7-1.2-4.7-1.2c-2.1,0-4.2,0.6-6,1.6c-1.8,1-3.4,2.4-4.5,4.1c-1.2,1.7-1.9,3.6-2.2,5.6c0,0.1,0,0.1,0,0.2h0
					c0,0,0,0,0,0.1c0,0.2,0,0.5-0.1,0.7c0,0.1,0,0.2,0,0.3c-0.1,1.6,0.1,3.2,0.6,4.6c0.1,0.2,0.2,0.4,0.3,0.6c0,0.1,0.1,0.2,0.1,0.2
					c0.1,0.2,0.2,0.4,0.3,0.6c0.1,0.2,0.3,0.4,0.4,0.6c0.1,0.1,0.1,0.2,0.2,0.3l0,0c0.2,0.3,0.5,0.5,0.7,0.8
					c0.1,0.1,0.3,0.3,0.4,0.4c0.1,0.1,0.2,0.2,0.3,0.3c0.2,0.1,0.3,0.2,0.4,0.3c1.5,1,3.4,1.5,5.5,1.5c2,0,3.7-0.5,5.1-1.3
					c1.9-1.1,3-2.3,4.5-4.1l-2.4-1.2C1652.6,1530.8,1650.7,1532.2,1648.9,1532.7z"/>
				<path class="st15" d="M1809.3,1511.6c-6.3,0-12.2,5.1-13.2,11.4c-1,6.2,3.4,11.3,9.7,11.2c6.3,0,12.2-5.1,13.2-11.4
					C1819.9,1516.6,1815.6,1511.5,1809.3,1511.6z M1806.2,1531.5c-2.9,0-4.6-3.8-3.9-8.5c0.7-4.7,3.7-8.6,6.6-8.6
					c2.9,0,4.6,3.8,3.9,8.5C1812.1,1527.6,1809.1,1531.4,1806.2,1531.5z"/>
				<path class="st15" d="M1832.2,1511.9l0.7-4.7c0.1-0.4,0.1-0.8,0.2-1.2c0.1-0.6,0.7-1,1.3-1.1c0.3,0,1-0.1,1.4-0.1l2.3,0l0.5-3.1
					l0,0c-8.7-0.8-10.4,0.2-11.2,5.7l-4,26.1l5.5,0l2.9-18.5l4.9,0l0.5-3.1L1832.2,1511.9z"/>
				<path class="st15" d="M1628.4,1531c1.4-1.7,2.2-3.4,2.5-5c0.4-2.3-0.1-4.3-1.4-5.8c-1-1.2-2.8-2.4-5.3-3.5
					c-2.1-1-3.2-1.5-4.1-2.1c-1.4-0.8-2.2-2.3-1.9-4.1c0.3-2.1,2.1-4,4.3-4.5c0.5-0.1,1-0.2,1.5-0.2c2.8,0,4.6,1.3,5.6,4.2l0.1,0.2
					l2.6-1.5l0-0.1c-0.4-1.1-1-2.1-1.9-2.9c-0.9-0.8-1.9-1.5-3.1-1.9c-1.2-0.4-2.4-0.6-3.7-0.6c-1.9,0-3.7,0.4-5.4,1.2
					c-1.8,0.9-3.2,2-4.2,3.3c-1.1,1.5-1.8,3-2.1,4.6c-0.4,2.4,0,4.3,1.2,5.6c1,1.1,2.6,2.1,5.1,3.2c2.3,1,3.3,1.5,4.4,2.3
					c0.2,0.1,0.4,0.3,0.6,0.5c1.1,1,1.5,2.3,1.2,3.9c-0.4,2.9-3.3,5.2-6.3,5.2h0l0,0l0,0c0,0,0,0-0.1,0c-1.4,0-2.6-0.3-3.4-0.9
					c-0.9-0.6-1.6-1.6-2.3-2.9l-0.1-0.2l-2.7,1.8l0.1,0.1c1.4,3.2,4.6,4.9,9.3,4.9c1.8,0,3.5-0.4,5.2-1.2
					C1626,1533.5,1627.4,1532.3,1628.4,1531z"/>
				<path class="st15" d="M1788.5,1529.8c1.4-1.7,2.2-3.4,2.5-5c0.4-2.3-0.1-4.3-1.4-5.8c-1-1.2-2.8-2.4-5.3-3.5
					c-2.1-1-3.2-1.5-4.1-2.1c-1.4-0.8-2.2-2.3-1.9-4.1c0.3-2.1,2.1-4,4.3-4.5c0.5-0.1,1-0.2,1.5-0.2c2.8,0,4.6,1.3,5.6,4.2l0.1,0.2
					l2.6-1.5l0-0.1c-0.4-1.1-1-2.1-1.9-2.9c-0.9-0.8-1.9-1.5-3.1-1.9c-1.2-0.4-2.4-0.6-3.7-0.6c-1.9,0-3.7,0.4-5.4,1.2
					c-1.8,0.9-3.2,2-4.2,3.3c-1.1,1.5-1.8,3-2.1,4.6c-0.4,2.4,0,4.3,1.2,5.6c1,1.1,2.6,2.1,5.1,3.2c2.3,1,3.3,1.5,4.4,2.3
					c0.2,0.1,0.4,0.3,0.6,0.5c1.1,1,1.5,2.3,1.2,3.9c-0.4,2.9-3.3,5.2-6.3,5.2l0,0l0,0l0,0c0,0,0,0-0.1,0c-1.4,0-2.6-0.3-3.4-0.9
					c-0.9-0.6-1.6-1.6-2.3-2.9l-0.1-0.2l-2.7,1.8l0.1,0.1c1.4,3.2,4.6,4.9,9.3,4.9c1.8,0,3.5-0.4,5.2-1.2
					C1786.1,1532.3,1787.4,1531.1,1788.5,1529.8z"/>
			</g>
		</g>
	</g>
	<g>
		<path class="st15" d="M2800.4,1438.5c-3.6,0.4-6.9,0.1-9.4-0.2l0,0c-6.3-0.9-10.4,0.4-13.2,4.3c-0.8,1.2-2.2,1.9-3.7,1.9
			c-1.6-0.1-3.1-1-3.8-2.4c-0.9-1.5-0.7-3.4,0.4-5c2.1-2.9,4.7-5,8-6.3c-1.5-2-2.5-3.9-3.1-5.9c-0.5-1.3-0.3-2.8,0.6-4
			c0.8-1.2,2.2-1.9,3.6-1.9c2.2,0,3.8,1.2,4.6,3.4c1.1,2.8,2.7,4.7,4.9,5.8c3.1,1.6,6.6,1.9,11.2,1.2v-42.3c0-0.1-0.1-0.2-0.3-0.5
			c-4.1-4.9-10.5-7.2-17.1-6.1c-6.6,1-12,5.2-14.5,11.2l-0.1,0.1c2.1,6,5.7,9.5,11,10.8c2,0.5,4,0.5,6.6,0.2c2.9-0.2,5.1,1.4,5.3,4
			c0.1,1.2-0.2,2.4-1,3.3c-0.8,1-2,1.6-3.3,1.7c-1.5,0.2-2.9,0.2-4.3,0.2c-7.8-0.2-14.1-3.3-18.7-9.2l-0.1-0.1
			c-0.4-0.7-0.9-1.4-1.3-2.1l-0.5-0.7c-8.5,2.5-14,9.5-14,18c0.2,4.7-1.3,8.7-4.7,12.5c-2.8,3.1-4.2,6.9-4.3,11.3
			c-0.1,5.4,1.6,10,5.2,13.8c2.7,3.1,4,6.5,3.8,10.2c-0.2,9.3,5.1,16.7,13.9,19.4c0.1-0.1,0.2-0.3,0.3-0.4
			c7.1-10.1,18.8-9.7,25.2-8.7c2.4,0.5,3.7,2.4,3.4,4.9c-0.2,2.4-2,4-4.4,4c-0.7,0-1.3-0.1-2-0.1c-0.6-0.1-1.2-0.1-1.7-0.1
			c-0.2,0-0.4,0-0.6,0c-6.6,0-11,2.3-13.7,7.2c-0.2,0.5-0.3,0.7,0,1.4c2.5,5.9,7.8,10.1,14.1,11.2c6.4,1.1,12.8-1.1,17.2-5.9
			c0.3-0.3,0.4-0.6,0.4-1.2V1438.5z"/>
		<path class="st15" d="M2824.9,1504.3c5.8-0.4,11-3.4,14.4-8.3c1.6-2.4,2.7-5.4,3.2-8.7l0.2-1l1-0.5c0.6-0.3,1.1-0.3,1.3-0.4
			c9.6-1.6,16.5-9.4,16.4-18.6c0-5,1.4-8.8,4.7-12.5c2.9-3.3,4.3-7.2,4.3-11.8c0.1-5.1-1.6-9.6-5-13.3c-2.7-2.8-4-6.4-3.8-10.4
			c0.1-4.8-1.3-9-4.1-12.6c-3.1-4-7.4-6.4-12.8-7.2l-1.8-0.3v-1.3c0-0.1-0.1-0.2-0.1-0.3c-0.1-0.2-0.1-0.5-0.2-0.7l0-0.1
			c0-0.1,0-0.2,0-0.2l0-0.2c-1.9-7.9-6.5-12.9-13.5-14.9c-7.3-2-13.7-0.2-19.2,5.6c-0.4,0.4-0.4,0.5-0.4,1v31.1c0.9,0,1.8,0,2.6,0
			c2,0,4.1,0.1,6.2,0c2.4-0.1,4.3-1.9,4.6-4.3c0.1-0.7,0.1-1.6,0.1-2.6c0-1,0-2,0.1-3c0,0,0-0.1,0-0.1c0,0-0.1,0-0.1-0.1
			c-3.7-2-5.5-6.4-4.4-10.5c1.1-4.2,4.7-7,9-7c4.2,0,7.9,2.9,9,7c1.2,4.2-0.7,8.6-4.5,10.5c0,0,0,0,0,0c0,0.1,0,0.2,0,0.3
			c0,0.6,0,1.3,0,1.9c0.1,2,0.1,4-0.4,6c-1.5,6.5-7.2,11-13.9,11h-8.3v4c2.4,0,4.9,0,7.3,0c6.1,0,12.4,0.1,18.7,0
			c2,0,3.9-1.9,4.2-4.2c0.1-0.9,0.1-1.9,0.1-3c0-0.9,0-1.8,0-2.8l0-0.1c0,0-0.1,0-0.1-0.1c-3.7-2-5.5-6.4-4.4-10.5
			c1.1-4,4.8-7,8.9-7c4.3,0,8.1,2.8,9.2,6.8c1.1,4.2-0.6,8.5-4.3,10.5c-0.1,0-0.1,0.1-0.2,0.1c0,0.1,0,0.2,0,0.4c0,0.6,0,1.2,0,1.8
			c0.1,1.9,0.1,3.9-0.4,5.9c-1.5,6.8-7.1,11.2-14.3,11.2h-24.8v3.5c2.7,0,5.5,0,8.2,0c5.6,0,11.4-0.1,17.2,0
			c6.8,0.2,12.2,4.6,13.7,11.2c0.5,2.1,0.4,4.1,0.4,6c0,0.6,0,1.2,0,1.8c0,0.1,0,0.2,0,0.2c0,0,0.2,0.1,0.2,0.1
			c3.5,1.8,5.4,5.9,4.4,10.1c-1,4-4.5,7-8.4,7.2c-4,0.4-7.8-2-9.3-5.7c-1.4-3.7-0.8-8.6,3-10.9c1-0.6,1.2-1.1,1.1-2.9l0-0.1v-2
			c0-4-1.9-5.9-5.9-5.9h-24.5v4c3.1,0,5.6-0.1,7.8-0.5l0.2,0l0.2,0c6.3,0.2,11.7,4.4,13.4,10.5c0.6,2.4,0.6,4.7,0.5,6.8
			c0,0.6,0,1.2,0,1.8c0,0.1,0,0.1,0,0.1c4,2.3,5.8,6.9,4.3,11.1c-1.3,4-5.1,6.5-9.3,6.4c-4-0.2-7.6-3.1-8.5-7
			c-1-4.2,0.8-8.3,4.5-10.3c0.1,0,0.1-0.1,0.2-0.1c0-0.5,0-0.9,0-1.4c0-1.2,0.1-2.2,0-3.4c-0.1-2.2-1.2-4.8-4.1-5.1
			c-2.6-0.3-5.2-0.2-7.9-0.2l-1.4,0v30.9c0,0.7,0.1,0.8,0.4,1.1C2813.6,1502.4,2819.2,1504.7,2824.9,1504.3z"/>
	</g>
	<g>
		<path class="st15" d="M892.6,952c-11.4,0-11.4,12.7-22.5,12.7c-11.4,0-11.4-12.7-22.5-12.7c-11.4,0-11.4,12.7-22.5,12.7
			c-11.4,0-11.4-12.7-22.5-12.7c-11.4,0-11.4,12.7-22.5,12.7c-11.4,0-11.4-12.7-22.5-12.7c-11.4,0-11.4,12.7-22.5,12.7
			c-11.4,0-11.4-12.7-22.5-12.7c0,49.8,40.4,90.4,90.4,90.4S892.6,1002,892.6,952z"/>
		<rect x="749.5" y="906.1" class="st15" width="28" height="28"/>
		<rect x="788.2" y="906.1" class="st15" width="28" height="28"/>
		<rect x="826.9" y="906.1" class="st15" width="28" height="28"/>
		<rect x="769" y="867.5" class="st15" width="28" height="28"/>
		<rect x="807.7" y="867.5" class="st15" width="28" height="28"/>
	</g>
	<g>
		<path class="st15" d="M443.5,640.2c-17.1,0-30.9,13.8-30.9,30.9c0,17.1,13.8,30.9,30.9,30.9c17.1,0,30.9-13.8,30.9-30.9
			C474.4,654,460.5,640.2,443.5,640.2z M443.5,688.2c-9.4,0-17.1-7.7-17.1-17.1S434,654,443.5,654s17.1,7.7,17.1,17.1
			S452.9,688.2,443.5,688.2z"/>
		<circle class="st15" cx="443.5" cy="671.1" r="7.9"/>
		<path class="st15" d="M401.7,671.1c0-11.5,4.6-22.2,12.9-30.1c1.8-1.7,1.9-4.6,0.1-6.4c-1.7-1.8-4.6-1.9-6.4-0.1
			c-10.1,9.7-15.7,22.7-15.7,36.7c0,14,5.6,27,15.7,36.7c0.9,0.8,2,1.3,3.1,1.3c1.2,0,2.4-0.5,3.3-1.4c1.7-1.8,1.7-4.7-0.1-6.4
			C406.3,693.3,401.7,682.6,401.7,671.1z"/>
		<path class="st15" d="M478.6,634.4c-1.8-1.7-4.7-1.7-6.4,0.1c-1.7,1.8-1.7,4.7,0.1,6.4c8.3,8,12.9,18.6,12.9,30.1
			s-4.6,22.2-12.9,30.1c-1.8,1.7-1.9,4.6-0.1,6.4c0.9,0.9,2.1,1.4,3.3,1.4c1.1,0,2.3-0.4,3.1-1.3c10.1-9.7,15.7-22.7,15.7-36.7
			C494.3,657.1,488.7,644.1,478.6,634.4z"/>
	</g>
	<g>
		<path class="st15" d="M282.3,1056.1c-1.8,2.1-1.6,5.3,0.5,7.2c1.9,1.7,4.8,1.7,6.7,0c13.6-13.5,35.5-13.5,49.2,0
			c0.9,0.9,2.1,1.4,3.4,1.5c2.8-0.1,5-2.4,4.9-5.2c0-1.3-0.6-2.5-1.5-3.4C328.1,1038.7,299.8,1038.6,282.3,1056.1
			C282.3,1056.1,282.3,1056.1,282.3,1056.1z"/>
		<path class="st15" d="M296,1069.8c-1.8,2.1-1.6,5.3,0.5,7.2c1.9,1.7,4.8,1.7,6.7,0c5.8-6.1,15.5-6.3,21.6-0.4
			c0.1,0.1,0.3,0.3,0.4,0.4c0.9,0.9,2.1,1.4,3.4,1.5c1.3,0,2.5-0.5,3.4-1.5c2-1.9,2-5.1,0.1-7.1c0,0-0.1-0.1-0.1-0.1
			C322,1059.8,305.9,1059.8,296,1069.8z"/>
		<circle class="st15" cx="314.2" cy="1087.9" r="6.6"/>
		<path class="st15" d="M359.7,1042.3c-25.2-25.2-66-25.2-91.2,0c-1.8,2.1-1.6,5.3,0.5,7.2c1.9,1.7,4.8,1.7,6.7,0
			c21.2-21.2,55.5-21.2,76.7,0c1.8,1.9,4.9,2,6.8,0.1c0,0,0.1-0.1,0.1-0.1c2.1-1.6,2.5-4.5,0.9-6.6
			C360,1042.7,359.9,1042.5,359.7,1042.3z"/>
	</g>
	<g>
		<rect x="1621.9" y="955.3" class="st15" width="25.8" height="25.8"/>
		<rect x="1659.3" y="955.3" class="st15" width="25.8" height="25.8"/>
		<rect x="1621.9" y="917.9" class="st15" width="25.8" height="25.8"/>
		<rect x="1659.3" y="917.9" class="st15" width="25.8" height="25.8"/>
		<polygon class="st15" points="1610.3,981.1 1610.3,906.3 1696.7,906.3 1696.7,981.1 1711.3,981.1 1711.3,891.6 1653.6,856.9 
			1595.6,891.6 1595.6,981.1 		"/>
	</g>
	<g>
		<path class="st15" d="M606.3,1405c-14-0.2-26.4-4.7-37.2-13.6c-3.6-3-4.6-6.9-4-11.3c1.8-14,12.6-23.5,26.7-23.5
			c9.8,0,19.5-0.1,29.3,0c14.8,0.1,26.3,11.1,26.7,25.5c0.1,3.7-1.2,6.9-4.1,9.3C632.8,1400.3,620.4,1404.9,606.3,1405z"/>
		<path class="st15" d="M583.7,1322.4c-0.1-12.4,10-22.6,22.6-22.7c12.4-0.1,22.6,9.9,22.8,22.5c0.2,12.3-10,22.7-22.5,22.8
			C594.1,1345.1,583.8,1334.9,583.7,1322.4z"/>
	</g>
	<g>
		<g>
			<path class="st15" d="M1652.2,1145.9l0.6,1.7h15.5l-0.6-3c-2.2-11.1-10.8-19.7-22-21.9l-3-0.6v15.5
				C1643.2,1137.7,1649.7,1139,1652.2,1145.9L1652.2,1145.9z"/>
			<path class="st15" d="M1622.1,1171.8c4.9,4.1,11.2,6.5,17.9,6.5c13.5,0,25-9.7,27.6-22.6l0.6-3h-15.5
				c-0.2,0.3-2.3,10.2-12.7,10.2c-2.6,0-5-0.8-7-2.1L1622.1,1171.8z"/>
			<path class="st15" d="M1629.5,1157.2c-1.3-2-2.1-4.4-2.1-7c0-10.1,10.2-12.7,10.2-12.7V1122l-3,0.6c-13,2.7-22.6,14.1-22.6,27.5
				c0,6.9,2.4,13,6.5,17.9L1629.5,1157.2z"/>
			<path class="st15" d="M1678.7,1171.1h15.4v35.7h-15.4V1171.1z"/>
			<path class="st15" d="M1658.2,1196.8h15.4v10.2h-15.4V1196.8z"/>
			<path class="st15" d="M1637.7,1191.6h15.4v15.4h-15.4V1191.6z"/>
			<path class="st15" d="M1617.2,1201.9h15.4v5.1h-15.4V1201.9z"/>
			<path class="st15" d="M1612,1212.1h87.3v5.1H1612V1212.1z"/>
		</g>
	</g>
</g>
</svg>
